<?xml version="1.0" standalone="no"?>
<!DOCTYPE svg PUBLIC "-//W3C//DTD SVG 20010904//EN"
 "http://www.w3.org/TR/2001/REC-SVG-20010904/DTD/svg10.dtd">
<svg version="1.0" xmlns="http://www.w3.org/2000/svg"
 width="278.000000pt" height="278.000000pt" viewBox="0 0 278.000000 278.000000"
 preserveAspectRatio="xMidYMid meet">
<metadata>
Created by potrace 1.11, written by Peter Selinger 2001-2013
</metadata>
<g transform="translate(0.000000,278.000000) scale(0.100000,-0.100000)"
fill="#000000" stroke="none">
<path d="M976 2753 c-3 -7 16 -29 41 -50 67 -55 167 -153 188 -186 18 -28 18
-28 -10 -57 -15 -16 -32 -27 -37 -24 -4 3 -8 -4 -8 -15 0 -10 -4 -21 -8 -23
-4 -1 -39 -43 -76 -93 -38 -49 -71 -92 -75 -95 -3 -3 -7 -11 -9 -19 -3 -14
-28 -57 -84 -144 -28 -45 -34 -62 -18 -52 21 13 1 -53 -35 -115 -106 -186
-150 -296 -134 -338 l11 -27 13 25 c8 14 14 22 15 18 0 -9 -23 -61 -30 -68
-18 -17 -55 -126 -69 -205 -12 -68 -17 -346 -6 -387 11 -43 40 -36 66 18 l23
45 18 -53 c24 -72 74 -171 120 -240 21 -31 38 -60 38 -63 0 -4 34 -46 76 -93
78 -90 105 -110 186 -137 31 -11 57 -29 76 -53 35 -44 114 -193 135 -254 8
-24 19 -42 25 -41 7 2 9 -4 5 -15 -6 -15 -5 -15 10 -3 15 12 30 50 40 106 2
11 7 29 11 40 5 11 13 34 19 50 12 33 65 116 81 128 6 4 26 6 44 4 25 -2 36 2
44 17 17 32 31 43 49 39 17 -5 58 39 102 111 16 26 33 43 39 40 6 -4 8 -2 4 4
-7 11 29 88 46 98 27 17 89 199 114 331 9 52 21 90 26 87 5 -3 7 -12 4 -20 -3
-8 -2 -14 3 -14 5 0 11 -13 14 -28 7 -36 55 -71 68 -51 7 11 14 82 11 110 -1
3 -4 48 -7 100 -4 51 -13 106 -21 122 -8 15 -14 33 -13 40 5 27 -49 170 -101
269 -11 20 -16 39 -11 42 15 9 -5 75 -49 164 -23 46 -42 91 -43 102 -1 10 -4
17 -8 14 -4 -2 -22 19 -39 46 -31 48 -32 52 -14 64 17 13 16 16 -14 57 -18 23
-32 47 -32 51 0 4 -10 19 -22 34 -13 14 -36 45 -53 68 -78 111 -146 195 -196
241 -51 47 -53 51 -38 67 10 9 21 13 25 10 4 -4 4 -2 1 4 -3 6 18 36 47 66 68
72 120 138 109 139 -38 5 -60 2 -68 -7 -5 -6 -36 -26 -69 -43 -32 -17 -78 -48
-102 -67 -35 -29 -46 -34 -62 -25 -11 6 -22 18 -26 26 -3 9 -10 14 -15 11 -5
-3 -26 6 -47 21 -22 14 -66 37 -99 51 -33 13 -62 27 -65 31 -9 12 -130 7 -134
-6z m108 -12 c4 -5 -3 -7 -14 -4 -23 6 -26 13 -6 13 8 0 17 -4 20 -9z m516
-15 c0 -2 -7 -7 -16 -10 -8 -3 -12 -2 -9 4 6 10 25 14 25 6z m-140 -90 c0 -3
-4 -8 -10 -11 -5 -3 -10 -1 -10 4 0 6 5 11 10 11 6 0 10 -2 10 -4z m-264 -54
c-4 -3 -14 2 -24 12 -16 18 -16 18 6 6 13 -6 21 -14 18 -18z m296 6 c-7 -7
-12 -8 -12 -2 0 14 12 26 19 19 2 -3 -1 -11 -7 -17z m-97 3 c3 -5 2 -12 -3
-15 -5 -3 -9 1 -9 9 0 17 3 19 12 6z m55 -51 c0 -5 -5 -10 -11 -10 -5 0 -7 5
-4 10 3 6 8 10 11 10 2 0 4 -4 4 -10z m-100 -34 c0 -2 -8 -10 -17 -17 -16 -13
-17 -12 -4 4 13 16 21 21 21 13z m145 -36 c10 -11 15 -20 12 -20 -4 0 -16 9
-27 20 -11 11 -16 20 -12 20 5 0 17 -9 27 -20z m125 -136 c0 -2 -9 0 -20 6
-11 6 -20 13 -20 16 0 2 9 0 20 -6 11 -6 20 -13 20 -16z m-243 -26 c18 -18 33
-39 33 -47 0 -8 7 -22 16 -32 9 -10 17 -29 18 -42 0 -14 4 -23 9 -20 4 2 7 -1
7 -8 0 -7 8 -31 19 -53 39 -87 78 -226 121 -431 24 -117 38 -488 20 -510 -7
-8 -9 -15 -6 -15 10 0 -33 -77 -67 -122 -29 -38 -51 -41 -62 -9 -3 9 4 53 15
96 11 43 20 90 20 105 0 42 -30 126 -54 152 -12 12 -20 25 -19 28 1 3 -31 6
-71 8 -62 3 -76 0 -108 -22 -20 -13 -40 -21 -44 -18 -4 4 -4 2 0 -5 3 -6 2
-14 -4 -18 -16 -10 -50 -91 -50 -119 0 -15 -4 -26 -10 -26 -5 0 -10 10 -10 23
0 12 -9 56 -21 97 -30 111 -30 381 1 510 5 19 14 62 21 95 7 33 21 76 32 95
10 19 20 42 22 52 5 27 124 268 132 268 4 0 22 -14 40 -32z m430 -243 c0 -8
-4 -12 -9 -9 -5 3 -6 10 -3 15 9 13 12 11 12 -6z m-837 -41 c0 -8 -19 -13 -24
-6 -3 5 1 9 9 9 8 0 15 -2 15 -3z m657 -386 c-3 -8 -6 -5 -6 6 -1 11 2 17 5
13 3 -3 4 -12 1 -19z m-560 -160 c-3 -8 -6 -5 -6 6 -1 11 2 17 5 13 3 -3 4
-12 1 -19z m580 0 c-3 -8 -6 -5 -6 6 -1 11 2 17 5 13 3 -3 4 -12 1 -19z m10
-150 c-3 -7 -5 -2 -5 12 0 14 2 19 5 13 2 -7 2 -19 0 -25z m-478 -183 c0 -5
-4 -3 -9 5 -5 8 -9 22 -9 30 0 16 17 -16 18 -35z m-192 -47 c-3 -8 -6 -5 -6 6
-1 11 2 17 5 13 3 -3 4 -12 1 -19z m218 -25 c19 -45 19 -47 7 -51 -5 -1 -12
10 -15 25 -3 15 -9 36 -12 46 -14 34 5 16 20 -20z m762 -20 c-3 -10 -5 -2 -5
17 0 19 2 27 5 18 2 -10 2 -26 0 -35z m-728 -55 c0 -22 -1 -22 -9 -3 -5 12 -9
14 -9 6 -1 -8 -4 -12 -7 -8 -8 7 4 27 17 27 5 0 9 -10 8 -22z m353 0 c-7 -7
-12 -8 -12 -2 0 14 12 26 19 19 2 -3 -1 -11 -7 -17z m-870 -10 c-7 -7 -12 -8
-12 -2 0 14 12 26 19 19 2 -3 -1 -11 -7 -17z m823 -28 c3 -5 1 -10 -4 -10 -6
0 -11 5 -11 10 0 6 2 10 4 10 3 0 8 -4 11 -10z m-428 -265 c0 -8 -4 -12 -9 -9
-5 3 -6 10 -3 15 9 13 12 11 12 -6z m627 -180 c-4 -8 -8 -15 -10 -15 -2 0 -4
7 -4 15 0 8 4 15 10 15 5 0 7 -7 4 -15z m46 -5 c0 -5 -5 -10 -11 -10 -5 0 -7
5 -4 10 3 6 8 10 11 10 2 0 4 -4 4 -10z"/>
<path d="M1655 2710 c3 -5 8 -10 11 -10 2 0 4 5 4 10 0 6 -5 10 -11 10 -5 0
-7 -4 -4 -10z"/>
<path d="M1125 2570 c3 -5 8 -10 11 -10 2 0 4 5 4 10 0 6 -5 10 -11 10 -5 0
-7 -4 -4 -10z"/>
<path d="M1710 2278 c0 -4 4 -8 9 -8 6 0 12 4 15 8 3 5 -1 9 -9 9 -8 0 -15 -4
-15 -9z"/>
</g>
</svg>
